<?xml version="1.0" encoding="utf-8"?>
<svg xmlns="http://www.w3.org/2000/svg">
    <defs>
        <symbol id="menu" viewBox="0 0 24 24" fill="currentColor">
            <path d="M3,6H21V8H3V6M3,11H21V13H3V11M3,16H21V18H3V16Z"/>
        </symbol>
        <symbol id="close" viewBox="0 0 24 24" fill="currentColor">
            <path d="M19,6.41L17.59,5L12,10.59L6.41,5L5,6.41L10.59,12L5,17.59L6.41,19L12,13.41L17.59,19L19,17.59L13.41,12L19,6.41Z"/>
        </symbol>
        <symbol id="download" viewBox="0 0 24 24" fill="currentColor">
            <path d="M2 12H4V17H20V12H22V17C22 18.11 21.11 19 20 19H4C2.9 19 2 18.11 2 17V12M12 15L17.55 9.54L16.13 8.13L13 11.25V2H11V11.25L7.88 8.13L6.46 9.55L12 15Z" />
        </symbol>
    </defs>
</svg>
